<svg width="513" height="513" viewBox="0 0 513 513" fill="none" xmlns="http://www.w3.org/2000/svg">
<path d="M448.291 256.114C448.291 150.114 362.291 64.1135 256.291 64.1135C150.291 64.1135 64.2911 150.114 64.2911 256.114C64.2911 362.114 150.291 448.114 256.291 448.114C362.291 448.114 448.291 362.114 448.291 256.114Z" stroke="#FF4655" stroke-width="32" stroke-miterlimit="10"/>
<path d="M216.611 334.553L331.061 265.413C332.656 264.442 333.975 263.076 334.89 261.447C335.805 259.818 336.285 257.982 336.285 256.113C336.285 254.245 335.805 252.409 334.89 250.78C333.975 249.151 332.656 247.785 331.061 246.813L216.611 177.673C214.971 176.691 213.098 176.162 211.186 176.141C209.274 176.121 207.39 176.61 205.729 177.557C204.068 178.505 202.689 179.877 201.733 181.534C200.778 183.19 200.28 185.071 200.291 186.983V325.243C200.28 327.156 200.778 329.037 201.733 330.693C202.689 332.35 204.068 333.722 205.729 334.67C207.39 335.617 209.274 336.106 211.186 336.085C213.098 336.065 214.971 335.536 216.611 334.553Z" fill="#FF4655"/>
</svg>
