<svg width="1406" height="3623" viewBox="0 0 1406 3623" fill="none" xmlns="http://www.w3.org/2000/svg">
<path d="M702.5 0.5V215.5C733.5 201.667 719.5 186.5 415.5 236.5C35.5001 299 -7.99997 297 73.5 360C155 423 235.5 476.5 362.5 402C489.5 327.5 341 269 548.5 284C756 299 837.5 234 868 318C898.5 402 1027.5 480 816.5 466.5C605.5 453 678 421 512.5 402C347 383 417 306.5 259.5 360C102 413.5 -112.5 392.5 73.5 466.5C259.5 540.5 305 618.5 396.5 561.5C488 504.5 449.5 421 548.5 466.5C647.5 512 670.5 529.5 680 613C689.5 696.5 702.5 778.5 702.5 795.5C702.5 812.5 714 860.5 702.5 892.5C691 924.5 630.5 960.5 581 979.5C531.5 998.5 347.5 1018 303.5 1004.5C259.5 991 168.5 1006 157 979.5C145.5 953 119 859.5 168.5 846.5C218 833.5 290.5 811 353 835.5C415.5 860 466.5 871 472.5 913C478.5 955 476.5 979.5 512.5 1050C548.5 1120.5 547 1143 581 1204C615 1265 598.5 1310 680 1335C761.5 1360 947.5 1388 997 1392C1046.5 1396 1295.5 1373.5 1305 1371.5C1314.5 1369.5 1396 1293 1402 1259C1408 1225 1402 1030.5 1402 1017.5C1402 1004.5 1212 846.5 1176 846.5C1140 846.5 839.5 824.5 828 835.5C818.8 844.3 740.5 982.167 702.5 1050L680 1478C591.833 1499.5 415.5 1544.4 415.5 1552C415.5 1559.6 453.5 1621.17 472.5 1651C554.167 1651 721.7 1651 738.5 1651C755.3 1651 886.167 1658.33 949.5 1662L997 1586C937 1556.83 814.3 1498.5 803.5 1498.5C792.7 1498.5 724 1511.17 691 1517.5V1614.5V2099.5C799.5 2139.5 1020.3 2220.2 1035.5 2223C1054.5 2226.5 1244.5 2149 1252 2135.5C1259.5 2122 1265.5 1976 1252 1957C1238.5 1938 967 1867 936.5 1882.5C912.1 1894.9 749 1958.67 670.5 1989C617.833 1984.5 512.5 1978.2 512.5 1989C512.5 2002.5 452 2063.5 450 2099.5C448 2135.5 486 2189 512.5 2206C539 2223 650 2236.5 670.5 2244C691 2251.5 704.5 2272.5 721.5 2282C738.5 2291.5 1191 2514 1191 2523.5C1191 2533 1172 2656 1172 2671.5C1172 2687 1168 2750 1132 2763C1096 2776 1003.5 2804.5 976.5 2814C949.5 2823.5 852.5 2865.5 828 2873C803.5 2880.5 657 2873 628.5 2873C600 2873 450 2850 450 2814C450 2778 427 2713 493.5 2698C560 2683 657 2686.5 721.5 2698C786 2709.5 851 2746 860.5 2763C868.1 2776.6 842 3143.67 828 3325.5L482 3348.5C439 3316.17 356.4 3251.1 370 3249.5C387 3247.5 548 3226.5 575 3249.5C596.6 3267.9 728.667 3358.5 792 3401.5V3512L721.5 3622" stroke="#FF4655"/>
</svg>
