<svg width="1125" height="3614" viewBox="0 0 1125 3614" fill="none" xmlns="http://www.w3.org/2000/svg">
<path d="M598.5 0.5C554.667 49.1667 469.7 158.1 480.5 204.5C494 262.5 582.5 296.5 598.5 385.5C614.5 474.5 535.5 545 480.5 618.5C425.5 692 281.5 699.5 226.5 739C171.5 778.5 -33 896.5 6.49998 930.5C46 964.5 64.5 1113.5 187.5 1119C310.5 1124.5 528 1058.5 575 1119C622 1179.5 771 1229 797.5 1302.5C824 1376 1070.5 1392 1028.5 1572.5C986.5 1753 1086.5 1926.5 942 1934C797.5 1941.5 205.5 1920.5 161 2015C116.5 2109.5 -6 2198.5 46 2274.5C98 2350.5 1041 2227.5 1112 2405.5C1183 2583.5 907.5 2749 826.5 2754C745.5 2759 127.5 2570.5 111.5 2780C95.5 2989.5 1070 3110.5 1080.5 3210C1091 3309.5 281.5 3453 268.5 3482C255.5 3511 407.5 3605 617 3613" stroke="#FF4655"/>
</svg>
