<svg width="1349" height="3688" viewBox="0 0 1349 3688" fill="none" xmlns="http://www.w3.org/2000/svg">
<path d="M659 0.5V297H35V506.5H452V396.5H659V687L1059.5 800L1227.5 755.5L1279.5 582.5L1261.5 359.5L1154 331L1135.5 236.5V126.5L1036 56L939 82L879 236.5L939 315L834.5 396.5L711 448.5L645.5 582.5L601 637.5L572.5 739.5L554 855V949L452 991H289.5L145.5 1004L1 991V873L35 815.5H205.5L402 855L486 873L520 949L554 1027.5L572.5 1109V1240L687.5 1415.5L863 1449.5L989 1565L897 1641L687.5 1662H504H381L289.5 1719.5L224 1790L179.5 1947.5C170.833 1985.83 158.7 2064.6 179.5 2073C200.3 2081.4 299.833 2142.83 347 2172.5L630 2217C692.667 2226.83 820.7 2247.5 831.5 2251.5C845 2256.5 1012.5 2314 1036 2324.5C1054.8 2332.9 1070.17 2378.67 1075.5 2400.5L1059.5 2500L923.5 2550L755.5 2594.5L614 2644L504 2673L436 2759.5L452 2827.5C479.833 2848.5 539.2 2890.5 554 2890.5C568.8 2890.5 694.5 2890.5 755.5 2890.5C802.667 2881.83 897 2860.8 897 2846C897 2831.2 853.333 2769.83 831.5 2741L708.5 2709.5L645.5 2741L572.5 2958.5L520 3168L436 3192L289.5 3210L179.5 3192C163 3156.17 133.1 3080.8 145.5 3066C157.9 3051.2 225.667 3000.5 258 2977L402 2924.5L698 2987.5L776.5 3126.5L968 3210L991.5 3325.5L968 3425C944.333 3452 897 3509.7 897 3524.5C897 3543 852.5 3616 897 3637C941.5 3658 1043.5 3684.5 1059.5 3687C1072.3 3689 1173.17 3679.17 1222 3674L1324 3637L1348 3540.5L1206.5 3475" stroke="#FF4655"/>
</svg>
