<svg width="370" height="1404" viewBox="0 0 370 1404" fill="none" xmlns="http://www.w3.org/2000/svg">
<path d="M176.5 0.5V702.5L226.5 694.5C238.341 696.589 243.873 698.439 252.5 702.5L249.5 688.5L283 712.5L326 714L310.5 735.5C338.15 721.949 363.278 878.712 336.5 888C309.722 897.288 336.393 862.623 333.5 851.5L330.5 865C320.502 872.071 313.294 875.183 300 880.5L291 874C288.082 872.946 303.251 848.903 294 831.5C284.749 814.097 295.479 790.767 286 760.5C285.966 770.905 285.182 776.833 283 787.5L286 791L284 791.5C286.375 793.516 287.372 795.036 288.5 798.5C282.662 807.794 282.339 813.882 286 826C288.979 830.224 290.253 832.997 291 839.5C288.482 841.916 286.392 842.654 280.5 842L278 849L279 851C278.928 853.372 278.11 854.177 275 854.5C275.338 856.114 275.326 856.987 275 858.5L271.5 860C320.368 894.72 341.332 916.457 368 959C235.053 916.019 166.695 916.199 105 1009.5L79 983.5C85.8833 961.052 91.5922 948.759 106 927.5C85.0735 943.768 78.0617 954.163 68.5 973.5L41.5 934C59.1632 914.214 71.1917 904.808 94.5 889.5C72.2128 894.08 59.7873 898.278 38 914.5L33.5 877C44.3049 863.331 51.8663 857.615 68.5 851.5C57.2715 845.624 50.1127 842.949 35.5 839.5C49.673 830.277 58.9028 826.909 76.5 822.5L86 800C105.887 808.024 117.707 811.209 139.5 815.5C127.044 793.233 125.362 779.302 129.5 752.5C116.031 752.242 112.539 756.669 121 776.5C105.036 775.244 101.728 781.992 103 803.5C91.6876 790.874 84.5349 784.869 68.5 778.5C66.1292 792.951 66.1827 801.189 67.5 816C47.8044 788.798 40.2902 772.403 32 741.5H16.5C22.6387 715.33 29.9072 702.885 52 686C45.2505 676.354 40.3059 671.326 28 663.5H38.5C26.412 649.6 18.3651 642.743 2 632C49.7007 623.481 107.531 657 109.5 658C111.469 659 109.5 648 109.5 648C132.916 662.093 146.096 669.95 154.5 697V717.5C160.639 712.79 164.385 710.757 172 709V1404" stroke="#FF4655"/>
</svg>
